<svg viewBox="0 -43 487 487" xmlns="http://www.w3.org/2000/svg">
	<path d="M313.055 372.3h-139.2c-12.128 0-22.398 9.5-22.398 21.637v6.364h184v-6.364c0-12.136-10.273-21.636-22.402-21.636zm0 0M281.055 327.3h-75.2c-12.128 0-22.398 9.5-22.398 21.637v7.364h120v-7.364c0-12.136-10.273-21.636-22.402-21.636zm0 0M480.223 252.777L421.957 127.97l28.39 8.148a8.001 8.001 0 0 0 9.872-5.492 7.998 7.998 0 0 0-5.457-9.887L285.129 72.063a44.81 44.81 0 0 0 .168-3.637c.004-19.34-13.25-36.16-32.05-40.68-18.806-4.523-38.259 4.438-47.044 21.668L36.566.738a7.998 7.998 0 0 0-9.793 5.512 8.006 8.006 0 0 0 5.383 9.867l35.418 10.164-61.441 131.61A8 8 0 0 0 0 165.66c-.012 31.655 19.07 60.194 48.328 72.28 29.258 12.086 62.918 5.336 85.254-17.097a77.277 77.277 0 0 0 23.328-55.184 8 8 0 0 0-6.687-7.883L92.117 33.324 201.785 64.79a43.106 43.106 0 0 0-.168 3.637c.028 20.011 14.2 37.21 33.84 41.062v208.813h16V109.488a41.963 41.963 0 0 0 29.25-22.05l116.992 33.57-61.566 131.883a8 8 0 0 0-6.133 7.77c-.012 31.655 19.07 60.194 48.328 72.28 29.258 12.086 62.918 5.336 85.254-17.097a77.277 77.277 0 0 0 23.328-55.184 8 8 0 0 0-6.687-7.883zm-347.711-95.476H23.895L78.203 40.98zm221.383 95l54.308-116.32 54.309 116.32zm0 0" fill="rgba(255,255,255,0.6)"/>
</svg>