<svg viewBox="0 0 212.511 201.399" xmlns="http://www.w3.org/2000/svg">
	<g stroke="#fff">
		<path d="M1.5 175.536c101.05 37.104 85.869 26.899 209.51 2.074" fill="none" stroke-width="3"/>
		<path d="M91.65 122.14c36.75-5 45.598 33.123 48.159 33.675 1.544.332 6.066-9.664 6.066-9.664M88.44 122.51c1.49 77.483-6.446 62.622-5.987 64.36" fill="none" stroke-width="1.9"/>
		<path d="M84.94 185.78c-2.622 1.029-3.936-1.394-1.548 2.088 2.444 3.565 3.962 5.557 6.981 8.937 1.825 2.043 13.178 2.132-5.434-11.024zM139.844 152.68c.534 4.62-1.676 7.013.361 5.388 4.196-3.347 9.05-9.244 8.203-16.142-.922-7.51 2.157-1.746-8.565 10.755z" fill-rule="evenodd" fill="white"/>
		<path d="M10.599 72.426C7.898 62.251 1.207 50.04-2.339 42.795-14.331 18.297-25.54 18.967-27.756 6.943" fill="none" stroke-width="2.184" transform="matrix(.40899 .84132 .63658 -.54053 27.309 92.114)"/>
		<path d="M-31.298 5.41c3.485-.054 5.128 8.425 4.364 5.486-1.573-6.05 3.655-12.795-1.56-12.649-5.676.159-9.709-8.857-2.804 7.164z" fill-rule="evenodd" stroke-width="1.15" transform="matrix(.40899 .84132 .63658 -.54053 27.309 92.114)" fill="white"/>
		<path d="M75.531 71.396c9.67-6.282 16.027-14.759 22.259-21.834 5.176-15.898 14.43-39.413 14.43-39.413" fill="none" stroke-width="2.037" transform="matrix(.53784 -.78626 -.6844 -.61789 87.327 163.284)"/>
		<path d="M111.27 4.218c2.326 2.682-1.286 11.26-.162 8.134 2.314-6.434 9.492-8.141 5.976-12.099-3.827-4.308-1.491-15.217-5.814 3.965z" fill-rule="evenodd" stroke-width="1.072" transform="matrix(.53784 -.78626 -.6844 -.61789 87.327 163.284)" fill="white"/>
		<path d="M79.485 51.391c.772 2.335.488 3.391-.123 6.576-3.818 19.904 5.9 68.185 9.846 65.303 6.07-4.432-12.047-49.025-9.754-65.31.29-2.055.577-4.72.031-6.57z" fill="none" stroke-width="3"/>
		<path transform="matrix(1.0844 -.04499 .0226 1.0009 -421.476 -333.946)" d="M444.03 362.03a12.857 25 0 1 1-.12.224" fill="none" stroke-linecap="round" stroke-width="2.353"/>
		<path d="M71.809 18.594a3.571 4.643-8.43 1 1-.027.046M82.959 18.104a3.571 4.643-8.43 1 1-.027.046" fill="none" stroke-linecap="round" stroke-width="2.075"/>
		<path d="M86.147 38.887c-1.919-.358-3.549-3.775-7.709-.9-1.479 1.023-2.884 3.078-7.05 1.34" fill="none" stroke-width="1.25"/>
		<path transform="matrix(.26669 -.03225 .03953 .21756 -17.563 -49.948)" d="M293.26 368.63a3.571 4.643 0 1 1-.034.042" fill="none" stroke-linecap="round" stroke-width="8.521"/>
		<path transform="matrix(.26669 -.03225 .03953 .21756 -9.19 -50.376)" d="M293.26 368.63a3.571 4.643 0 1 1-.034.042" fill="none" stroke-linecap="round" stroke-width="8.521"/>
	</g>
</svg>