<svg class="highcharts-root" xmlns="http://www.w3.org/2000/svg" width="1110" height="600" font-family="&quot;Lucida Grande&quot;,&quot;Lucida Sans Unicode&quot;,Arial,Helvetica,sans-serif" font-size="12">
<defs>
<clipPath id="b">
<path fill="none" d="M0 0h1019v353H0z"/>
</clipPath>
<clipPath id="a">
<path fill="none" d="M0 0h1019v353H0z"/>
</clipPath>
<clipPath id="c">
<path fill="none" d="M0 0h991v40H0z"/>
</clipPath>
</defs>
<rect fill="#fff" class="highcharts-background" width="1110" height="600" rx="0" ry="0"/>
<path fill="none" class="highcharts-plot-background" d="M81 94h1019v353H81z"/>
<g class="highcharts-grid highcharts-xaxis-grid">
<path fill="none" class="highcharts-grid-line" d="M893.5 94v353M983.5 94v353M1086.5 94v353M80.5 94v353M183.5 94v353M286.5 94v353M390.5 94v353M493.5 94v353M583.5 94v353M686.5 94v353M789.5 94v353"/>
</g>
<g class="highcharts-grid highcharts-xaxis-grid highcharts-navigator-xaxis">
<path fill="none" stroke="#e6e6e6" class="highcharts-grid-line" d="M94.5 495v40M145.5 495v40M300.5 495v40M454.5 495v40M588.5 495v40M725.5 495v40M879.5 495v40M1021.5 495v40"/>
</g>
<g class="highcharts-grid highcharts-yaxis-grid">
<path fill="none" stroke="#e6e6e6" class="highcharts-grid-line" d="M81 447.5h1019M81 376.5h1019M81 306.5h1019M81 235.5h1019M81 165.5h1019M81 93.5h1019"/>
</g>
<g class="highcharts-grid highcharts-yaxis-grid highcharts-navigator-yaxis">
<path fill="none" class="highcharts-grid-line" d="M95 535.5h991M95 507.5h991"/>
</g>
<path fill="none" class="highcharts-plot-border" d="M81 94h1019v353H81z"/>
<g class="highcharts-axis highcharts-xaxis">
<path fill="none" class="highcharts-tick" stroke="#ccd6eb" d="M893.5 447v10M983.5 447v10M1086.5 447v10M80.5 447v10M183.5 447v10M286.5 447v10M390.5 447v10M493.5 447v10M583.5 447v10M686.5 447v10M789.5 447v10"/>
<path fill="none" class="highcharts-axis-line" stroke="#ccd6eb" d="M81 447.5h1019"/>
</g>
<g class="highcharts-axis highcharts-xaxis highcharts-navigator-xaxis">
<path fill="none" class="highcharts-axis-line" d="M95 535h991"/>
</g>
<g class="highcharts-axis highcharts-yaxis">
<text x="25.234" text-anchor="middle" transform="rotate(-90 25.234 270.5)" class="highcharts-axis-title" y="270.5" color="#666" fill="#666">
<tspan>Video Bytes (KB)</tspan>
</text>
<path fill="none" class="highcharts-axis-line" d="M81 94v353"/>
</g>
<g class="highcharts-axis highcharts-yaxis highcharts-navigator-yaxis">
<path fill="none" class="highcharts-axis-line" d="M81 495v40"/>
</g>
<path fill="none" class="highcharts-crosshair highcharts-crosshair-thin undefined" stroke="#ccc" d="M402.5 94v353" pointer-events="none"/>
<g class="highcharts-scrollbar" transform="translate(81 536)">
<rect fill="#f2f2f2" class="highcharts-scrollbar-track" rx="0" ry="0" height="14" width="1019" stroke="#f2f2f2" y="-.5"/>
<g transform="translate(14 -.5)">
<rect fill="#ccc" class="highcharts-scrollbar-thumb" height="14" width="991" rx="0" ry="0" stroke="#ccc"/>
<path fill="none" d="M492 3.5v5.833m3-5.833v5.833m3-5.833v5.833" class="highcharts-scrollbar-rifles" stroke="#333"/>
</g>
<rect fill="#e6e6e6" class="highcharts-scrollbar-button" stroke="#ccc" x="-.5" y="-.5" width="14" height="14" rx="0" ry="0"/>
<path fill="#333" d="M8 4v6L5 7" class="highcharts-scrollbar-arrow"/>
<g transform="translate(1005)">
<rect fill="#e6e6e6" class="highcharts-scrollbar-button" stroke="#ccc" x="-.5" y="-.5" width="14" height="14" rx="0" ry="0"/>
<path fill="#333" d="M6 4v6l3-3" class="highcharts-scrollbar-arrow"/>
</g>
</g>
<g class="highcharts-series-group">
<g class="highcharts-series highcharts-series-1 highcharts-areasplinerange-series" transform="translate(81 94)" clip-path="url(#a)">
<path fill="rgba(4,199,253,0.1)" d="M1019 332.157V122.65s-7.74-12.133-12.899-18.738c-5.16-6.606-7.739-14.289-12.898-14.289-5.16 0-7.74 38.021-12.9 38.021-5.159 0-7.738-2.283-12.898-3.711-5.16-1.428-7.74-.408-12.899-3.429-5.16-3.02-7.739-11.675-12.898-11.675-5.16 0-7.74 0-12.9 1.4-5.159 1.399-7.738 5.248-12.898 17.347-5.16 12.098-7.74 43.146-12.899 43.146-5.16 0-7.739-14.164-12.898-26.597-5.16-12.434-7.74-25.181-12.9-35.57-5.159-10.39-7.738-16.377-12.898-16.377-5.16 0-7.74.792-12.899.792-5.159 0-7.739-12.549-12.898-12.549-5.16 0-7.74 7.856-12.899 7.856-5.16 0-7.74-4.01-12.899-4.01-5.16 0-7.739 13.849-12.898 13.849-5.16 0-7.74-14.135-12.9-14.135-5.159 0-7.738.139-12.898 2.886-5.16 2.746-7.74 10.849-12.899 10.849-5.16 0-7.739 0-12.898-1.2-5.16-1.2-7.74-7.68-12.9-7.68-5.159 0-7.738 6.47-12.898 6.47-5.16 0-7.74-7.233-12.899-7.233-5.16 0-7.739 11.144-12.898 11.144-5.16 0-7.74-.789-12.9-1.214-5.159-.425-7.738-.911-12.898-.911-5.16 0-7.74 13.984-12.899 13.984-5.16 0-7.739-.88-12.898-1.473-5.16-.592-7.74 0-12.899-1.488-5.16-1.488-7.74-10.65-12.899-16.196-5.16-5.547-7.739-11.535-12.898-11.535-5.16 0-7.74 104.527-12.9 108.71-5.159 4.181-7.738 2.413-12.898 4.181-5.16 1.768-7.74 4.659-12.899 4.659-5.16 0-7.739-2.376-12.898-2.376-5.16 0-7.74 3.11-12.9 3.11-5.159 0-7.738-4.789-12.898-4.789-15.478 0-23.218 5.675-38.696 21.559-5.16 5.294-7.74 31.386-12.899 31.386-5.16 0-7.74-10.519-12.899-10.519-5.16 0-7.739 60.697-12.898 64.692-5.16 3.995-7.74 1.87-12.899 3.995-5.16 2.125-7.74 4.67-12.899 6.63-5.16 1.96-7.739 1.46-12.899 3.172-5.159 1.71-7.739 5.383-12.898 5.383-5.16 0-7.74-.048-12.899-.048-5.16 0-7.74 2.38-12.899 2.38-5.16 0-7.739-.97-12.898-3.455-5.16-2.485-7.74-6.174-12.9-8.968-5.159-2.795-7.738-3.396-12.898-5.005-5.16-1.61-7.74-3.041-12.899-3.041-5.16 0-7.739 38.766-12.898 38.766-5.16 0-7.74-2.105-12.9-2.332-5.159-.226-7.738-.226-12.898-.226-5.16 0-7.74 3.41-12.899 4.162-5.16.752-7.739.752-12.898.752-5.16 0-7.74-.003-12.9-.044-5.159-.041-7.738-.162-12.898-.162-5.16 0-7.739.235-12.899.235-5.159 0-7.739-.029-12.898-.123-5.16-.094-7.74-.347-12.899-.347-5.16 0-7.74.145-12.899.384-5.16.24-7.739.511-12.898.811-5.16.3-7.74.69-12.9.69-5.159 0-7.738-.2-12.898-.2-5.16 0-7.74.129-12.899.129-5.16 0-7.739-1.258-12.898-1.336-5.16-.077-7.74 0-12.9-.077-5.159-.078-7.738-.356-12.898-1.146-5.16-.79-7.74-2.804-12.899-2.804-5.16 0-7.739.255-12.898.992-5.16.736-7.74 2.69-12.9 2.69-5.159 0-7.738-1.322-12.898-1.487-5.16-.165-7.739-.165-12.899-.165-5.159 0-7.739.011-12.898.43-5.16.417-12.899 1.66-12.899 1.66v8.796c5.16-.097 7.74-.097 12.899-.097 5.16 0 7.739.064 12.898.064 5.16 0 7.74-.061 12.9-.061 5.159 0 7.738.148 12.898.148 5.16 0 7.74-.068 12.899-.068 5.16 0 7.739.024 12.898.032 5.16.009 7.74 0 12.9.012 5.159.011 7.738.236 12.898.236 5.16 0 7.74-.004 12.899-.004 5.16 0 7.739 0 12.898.052 5.16.051 7.74.233 12.9.24 5.159.008 7.738.008 12.898.008h12.899c5.159 0 7.739 0 12.898-.011 5.16-.012 7.74 0 12.899-.064 5.16-.063 7.74-.272 12.899-.295 5.16-.024 7.739-.002 12.898-.024 5.16-.022 7.74-.087 12.9-.087H257.974c5.16 0 7.739.193 12.898.193 5.16 0 7.74-.015 12.9-.015 5.159 0 7.738 0 12.898.003 5.16.003 7.74.064 12.899.141 5.16.078 7.739.207 12.898.247 5.16.04 7.74.04 12.9.04 5.159 0 7.738-.006 12.898-.01 5.16-.003 7.74-.006 12.899-.006 5.16 0 7.739.022 12.898.022 5.16 0 7.74-.037 12.899-.054 5.16-.017 7.74-.018 12.899-.034 5.16-.016 7.739-.046 12.898-.046 5.16 0 7.74.096 12.9.096 5.159 0 7.738-.096 12.898-.096h12.899c5.16 0 7.739-26.113 12.898-26.113 5.16 0 7.74 26.23 12.9 26.23 5.159 0 7.738-31.636 12.898-31.636 15.478 0 23.218 4.726 38.696 4.726 5.16 0 7.74-2.738 12.899-2.738 5.16 0 7.74 0 12.899.956 5.16.956 7.739 3.887 12.898 3.887 5.16 0 7.74-2.961 12.899-2.961 5.16 0 7.74 1.185 12.899 1.185 5.16 0 7.739-2.218 12.899-2.218 5.159 0 7.739 3.112 12.898 3.112 5.16 0 7.74-.685 12.899-.685 5.16 0 7.74.046 12.899.085 5.16.039 7.739.078 12.898.111 5.16.033 7.74 0 12.9.055 5.159.055 7.738.523 12.898.523 5.16 0 7.74-.502 12.899-.672 5.16-.17 7.739-.028 12.898-.18 5.16-.15 7.74-.372 12.9-.577 5.159-.205 7.738-.449 12.898-.449 5.16 0 7.74.234 12.899.48 5.16.244 7.739.744 12.898.744 5.16 0 7.74-.661 12.9-1.126 5.159-.464 7.738-1.195 12.898-1.195 5.16 0 7.739 1.516 12.899 1.791 5.159.276 7.739.035 12.898.276 5.16.24 7.74.928 12.899.928 5.16 0 7.74-1.39 12.899-1.39 5.16 0 7.739.293 12.898.293 5.16 0 7.74 0 12.9-.577 5.159-.577 7.738-4.758 12.898-5.919 5.16-1.16 7.74-1.16 12.899-1.16 5.16 0 7.739.275 12.898.973 5.16.697 7.74 1.335 12.9 2.517 5.159 1.181 7.738 3.39 12.898 3.39 5.16 0 7.74-.175 12.899-.175 5.16 0 7.739 7.002 12.898 7.652 5.16.65 7.74.39 12.9.65 5.159.26 7.738.65 12.898.65 5.16 0 7.739-2.838 12.899-2.838 5.159 0 7.739 2.32 12.898 2.32 5.16 0 7.74-1.418 12.899-1.418V353M0 352.088s7.74-.097 12.899-.097c5.16 0 7.739.064 12.898.064 5.16 0 7.74-.061 12.9-.061 5.159 0 7.738.148 12.898.148 5.16 0 7.74-.068 12.899-.068 5.16 0 7.739.024 12.898.032 5.16.009 7.74 0 12.9.012 5.159.011 7.738.236 12.898.236 5.16 0 7.74-.004 12.899-.004 5.16 0 7.739 0 12.898.052 5.16.051 7.74.233 12.9.24 5.159.008 7.738.008 12.898.008h12.899c5.159 0 7.739 0 12.898-.011 5.16-.012 7.74 0 12.899-.064 5.16-.063 7.74-.272 12.899-.295 5.16-.024 7.739-.002 12.898-.024 5.16-.022 7.74-.087 12.9-.087H257.974c5.16 0 7.739.193 12.898.193 5.16 0 7.74-.015 12.9-.015 5.159 0 7.738 0 12.898.003 5.16.003 7.74.064 12.899.141 5.16.078 7.739.207 12.898.247 5.16.04 7.74.04 12.9.04 5.159 0 7.738-.006 12.898-.01 5.16-.003 7.74-.006 12.899-.006 5.16 0 7.739.022 12.898.022 5.16 0 7.74-.037 12.899-.054 5.16-.017 7.74-.018 12.899-.034 5.16-.016 7.739-.046 12.898-.046 5.16 0 7.74.096 12.9.096 5.159 0 7.738-.096 12.898-.096h12.899c5.16 0 7.739-26.113 12.898-26.113 5.16 0 7.74 26.23 12.9 26.23 5.159 0 7.738-31.636 12.898-31.636 15.478 0 23.218 4.726 38.696 4.726 5.16 0 7.74-2.738 12.899-2.738 5.16 0 7.74 0 12.899.956 5.16.956 7.739 3.887 12.898 3.887 5.16 0 7.74-2.961 12.899-2.961 5.16 0 7.74 1.185 12.899 1.185 5.16 0 7.739-2.218 12.899-2.218 5.159 0 7.739 3.112 12.898 3.112 5.16 0 7.74-.685 12.899-.685 5.16 0 7.74.046 12.899.085 5.16.039 7.739.078 12.898.111 5.16.033 7.74 0 12.9.055 5.159.055 7.738.523 12.898.523 5.16 0 7.74-.502 12.899-.672 5.16-.17 7.739-.028 12.898-.18 5.16-.15 7.74-.372 12.9-.577 5.159-.205 7.738-.449 12.898-.449 5.16 0 7.74.234 12.899.48 5.16.244 7.739.744 12.898.744 5.16 0 7.74-.661 12.9-1.126 5.159-.464 7.738-1.195 12.898-1.195 5.16 0 7.739 1.516 12.899 1.791 5.159.276 7.739.035 12.898.276 5.16.24 7.74.928 12.899.928 5.16 0 7.74-1.39 12.899-1.39 5.16 0 7.739.293 12.898.293 5.16 0 7.74 0 12.9-.577 5.159-.577 7.738-4.758 12.898-5.919 5.16-1.16 7.74-1.16 12.899-1.16 5.16 0 7.739.275 12.898.973 5.16.697 7.74 1.335 12.9 2.517 5.159 1.181 7.738 3.39 12.898 3.39 5.16 0 7.74-.175 12.899-.175 5.16 0 7.739 7.002 12.898 7.652 5.16.65 7.74.39 12.9.65 5.159.26 7.738.65 12.898.65 5.16 0 7.739-2.838 12.899-2.838 5.159 0 7.739 2.32 12.898 2.32 5.16 0 12.899-1.418 12.899-1.418V122.65s-7.74-12.133-12.899-18.738c-5.16-6.606-7.739-14.289-12.898-14.289-5.16 0-7.74 38.021-12.9 38.021-5.159 0-7.738-2.283-12.898-3.711-5.16-1.428-7.74-.408-12.899-3.429-5.16-3.02-7.739-11.675-12.898-11.675-5.16 0-7.74 0-12.9 1.4-5.159 1.399-7.738 5.248-12.898 17.347-5.16 12.098-7.74 43.146-12.899 43.146-5.16 0-7.739-14.164-12.898-26.597-5.16-12.434-7.74-25.181-12.9-35.57-5.159-10.39-7.738-16.377-12.898-16.377-5.16 0-7.74.792-12.899.792-5.159 0-7.739-12.549-12.898-12.549-5.16 0-7.74 7.856-12.899 7.856-5.16 0-7.74-4.01-12.899-4.01-5.16 0-7.739 13.849-12.898 13.849-5.16 0-7.74-14.135-12.9-14.135-5.159 0-7.738.139-12.898 2.886-5.16 2.746-7.74 10.849-12.899 10.849-5.16 0-7.739 0-12.898-1.2-5.16-1.2-7.74-7.68-12.9-7.68-5.159 0-7.738 6.47-12.898 6.47-5.16 0-7.74-7.233-12.899-7.233-5.16 0-7.739 11.144-12.898 11.144-5.16 0-7.74-.789-12.9-1.214-5.159-.425-7.738-.911-12.898-.911-5.16 0-7.74 13.984-12.899 13.984-5.16 0-7.739-.88-12.898-1.473-5.16-.592-7.74 0-12.899-1.488-5.16-1.488-7.74-10.65-12.899-16.196-5.16-5.547-7.739-11.535-12.898-11.535-5.16 0-7.74 104.527-12.9 108.71-5.159 4.181-7.738 2.413-12.898 4.181-5.16 1.768-7.74 4.659-12.899 4.659-5.16 0-7.739-2.376-12.898-2.376-5.16 0-7.74 3.11-12.9 3.11-5.159 0-7.738-4.789-12.898-4.789-15.478 0-23.218 5.675-38.696 21.559-5.16 5.294-7.74 31.386-12.899 31.386-5.16 0-7.74-10.519-12.899-10.519-5.16 0-7.739 60.697-12.898 64.692-5.16 3.995-7.74 1.87-12.899 3.995-5.16 2.125-7.74 4.67-12.899 6.63-5.16 1.96-7.739 1.46-12.899 3.172-5.159 1.71-7.739 5.383-12.898 5.383-5.16 0-7.74-.048-12.899-.048-5.16 0-7.74 2.38-12.899 2.38-5.16 0-7.739-.97-12.898-3.455-5.16-2.485-7.74-6.174-12.9-8.968-5.159-2.795-7.738-3.396-12.898-5.005-5.16-1.61-7.74-3.041-12.899-3.041-5.16 0-7.739 38.766-12.898 38.766-5.16 0-7.74-2.105-12.9-2.332-5.159-.226-7.738-.226-12.898-.226-5.16 0-7.74 3.41-12.899 4.162-5.16.752-7.739.752-12.898.752-5.16 0-7.74-.003-12.9-.044-5.159-.041-7.738-.162-12.898-.162-5.16 0-7.739.235-12.899.235-5.159 0-7.739-.029-12.898-.123-5.16-.094-7.74-.347-12.899-.347-5.16 0-7.74.145-12.899.384-5.16.24-7.739.511-12.898.811-5.16.3-7.74.69-12.9.69-5.159 0-7.738-.2-12.898-.2-5.16 0-7.74.129-12.899.129-5.16 0-7.739-1.258-12.898-1.336-5.16-.077-7.74 0-12.9-.077-5.159-.078-7.738-.356-12.898-1.146-5.16-.79-7.74-2.804-12.899-2.804-5.16 0-7.739.255-12.898.992-5.16.736-7.74 2.69-12.9 2.69-5.159 0-7.738-1.322-12.898-1.487-5.16-.165-7.739-.165-12.899-.165-5.159 0-7.739.011-12.898.43-5.16.417-12.899 1.66-12.899 1.66v8.796" class="highcharts-area"/>
<path fill="none" d="M0 352.088s7.74-.097 12.899-.097c5.16 0 7.739.064 12.898.064 5.16 0 7.74-.061 12.9-.061 5.159 0 7.738.148 12.898.148 5.16 0 7.74-.068 12.899-.068 5.16 0 7.739.024 12.898.032 5.16.009 7.74 0 12.9.012 5.159.011 7.738.236 12.898.236 5.16 0 7.74-.004 12.899-.004 5.16 0 7.739 0 12.898.052 5.16.051 7.74.233 12.9.24 5.159.008 7.738.008 12.898.008h12.899c5.159 0 7.739 0 12.898-.011 5.16-.012 7.74 0 12.899-.064 5.16-.063 7.74-.272 12.899-.295 5.16-.024 7.739-.002 12.898-.024 5.16-.022 7.74-.087 12.9-.087H257.974c5.16 0 7.739.193 12.898.193 5.16 0 7.74-.015 12.9-.015 5.159 0 7.738 0 12.898.003 5.16.003 7.74.064 12.899.141 5.16.078 7.739.207 12.898.247 5.16.04 7.74.04 12.9.04 5.159 0 7.738-.006 12.898-.01 5.16-.003 7.74-.006 12.899-.006 5.16 0 7.739.022 12.898.022 5.16 0 7.74-.037 12.899-.054 5.16-.017 7.74-.018 12.899-.034 5.16-.016 7.739-.046 12.898-.046 5.16 0 7.74.096 12.9.096 5.159 0 7.738-.096 12.898-.096h12.899c5.16 0 7.739-26.113 12.898-26.113 5.16 0 7.74 26.23 12.9 26.23 5.159 0 7.738-31.636 12.898-31.636 15.478 0 23.218 4.726 38.696 4.726 5.16 0 7.74-2.738 12.899-2.738 5.16 0 7.74 0 12.899.956 5.16.956 7.739 3.887 12.898 3.887 5.16 0 7.74-2.961 12.899-2.961 5.16 0 7.74 1.185 12.899 1.185 5.16 0 7.739-2.218 12.899-2.218 5.159 0 7.739 3.112 12.898 3.112 5.16 0 7.74-.685 12.899-.685 5.16 0 7.74.046 12.899.085 5.16.039 7.739.078 12.898.111 5.16.033 7.74 0 12.9.055 5.159.055 7.738.523 12.898.523 5.16 0 7.74-.502 12.899-.672 5.16-.17 7.739-.028 12.898-.18 5.16-.15 7.74-.372 12.9-.577 5.159-.205 7.738-.449 12.898-.449 5.16 0 7.74.234 12.899.48 5.16.244 7.739.744 12.898.744 5.16 0 7.74-.661 12.9-1.126 5.159-.464 7.738-1.195 12.898-1.195 5.16 0 7.739 1.516 12.899 1.791 5.159.276 7.739.035 12.898.276 5.16.24 7.74.928 12.899.928 5.16 0 7.74-1.39 12.899-1.39 5.16 0 7.739.293 12.898.293 5.16 0 7.74 0 12.9-.577 5.159-.577 7.738-4.758 12.898-5.919 5.16-1.16 7.74-1.16 12.899-1.16 5.16 0 7.739.275 12.898.973 5.16.697 7.74 1.335 12.9 2.517 5.159 1.181 7.738 3.39 12.898 3.39 5.16 0 7.74-.175 12.899-.175 5.16 0 7.739 7.002 12.898 7.652 5.16.65 7.74.39 12.9.65 5.159.26 7.738.65 12.898.65 5.16 0 7.739-2.838 12.899-2.838 5.159 0 7.739 2.32 12.898 2.32 5.16 0 12.899-1.418 12.899-1.418m0-209.507s-7.74-12.133-12.899-18.738c-5.16-6.606-7.739-14.289-12.898-14.289-5.16 0-7.74 38.021-12.9 38.021-5.159 0-7.738-2.283-12.898-3.711-5.16-1.428-7.74-.408-12.899-3.429-5.16-3.02-7.739-11.675-12.898-11.675-5.16 0-7.74 0-12.9 1.4-5.159 1.399-7.738 5.248-12.898 17.347-5.16 12.098-7.74 43.146-12.899 43.146-5.16 0-7.739-14.164-12.898-26.597-5.16-12.434-7.74-25.181-12.9-35.57-5.159-10.39-7.738-16.377-12.898-16.377-5.16 0-7.74.792-12.899.792-5.159 0-7.739-12.549-12.898-12.549-5.16 0-7.74 7.856-12.899 7.856-5.16 0-7.74-4.01-12.899-4.01-5.16 0-7.739 13.849-12.898 13.849-5.16 0-7.74-14.135-12.9-14.135-5.159 0-7.738.139-12.898 2.886-5.16 2.746-7.74 10.849-12.899 10.849-5.16 0-7.739 0-12.898-1.2-5.16-1.2-7.74-7.68-12.9-7.68-5.159 0-7.738 6.47-12.898 6.47-5.16 0-7.74-7.233-12.899-7.233-5.16 0-7.739 11.144-12.898 11.144-5.16 0-7.74-.789-12.9-1.214-5.159-.425-7.738-.911-12.898-.911-5.16 0-7.74 13.984-12.899 13.984-5.16 0-7.739-.88-12.898-1.473-5.16-.592-7.74 0-12.899-1.488-5.16-1.488-7.74-10.65-12.899-16.196-5.16-5.547-7.739-11.535-12.898-11.535-5.16 0-7.74 104.527-12.9 108.71-5.159 4.181-7.738 2.413-12.898 4.181-5.16 1.768-7.74 4.659-12.899 4.659-5.16 0-7.739-2.376-12.898-2.376-5.16 0-7.74 3.11-12.9 3.11-5.159 0-7.738-4.789-12.898-4.789-15.478 0-23.218 5.675-38.696 21.559-5.16 5.294-7.74 31.386-12.899 31.386-5.16 0-7.74-10.519-12.899-10.519-5.16 0-7.739 60.697-12.898 64.692-5.16 3.995-7.74 1.87-12.899 3.995-5.16 2.125-7.74 4.67-12.899 6.63-5.16 1.96-7.739 1.46-12.899 3.172-5.159 1.71-7.739 5.383-12.898 5.383-5.16 0-7.74-.048-12.899-.048-5.16 0-7.74 2.38-12.899 2.38-5.16 0-7.739-.97-12.898-3.455-5.16-2.485-7.74-6.174-12.9-8.968-5.159-2.795-7.738-3.396-12.898-5.005-5.16-1.61-7.74-3.041-12.899-3.041-5.16 0-7.739 38.766-12.898 38.766-5.16 0-7.74-2.105-12.9-2.332-5.159-.226-7.738-.226-12.898-.226-5.16 0-7.74 3.41-12.899 4.162-5.16.752-7.739.752-12.898.752-5.16 0-7.74-.003-12.9-.044-5.159-.041-7.738-.162-12.898-.162-5.16 0-7.739.235-12.899.235-5.159 0-7.739-.029-12.898-.123-5.16-.094-7.74-.347-12.899-.347-5.16 0-7.74.145-12.899.384-5.16.24-7.739.511-12.898.811-5.16.3-7.74.69-12.9.69-5.159 0-7.738-.2-12.898-.2-5.16 0-7.74.129-12.899.129-5.16 0-7.739-1.258-12.898-1.336-5.16-.077-7.74 0-12.9-.077-5.159-.078-7.738-.356-12.898-1.146-5.16-.79-7.74-2.804-12.899-2.804-5.16 0-7.739.255-12.898.992-5.16.736-7.74 2.69-12.9 2.69-5.159 0-7.738-1.322-12.898-1.487-5.16-.165-7.739-.165-12.899-.165-5.159 0-7.739.011-12.898.43-5.16.417-12.899 1.66-12.899 1.66" class="highcharts-graph"/>
<path fill="rgba(192,192,192,0.0001)" d="M1019 332.157V122.65s-7.74-12.133-12.899-18.738c-5.16-6.606-7.739-14.289-12.898-14.289-5.16 0-7.74 38.021-12.9 38.021-5.159 0-7.738-2.283-12.898-3.711-5.16-1.428-7.74-.408-12.899-3.429-5.16-3.02-7.739-11.675-12.898-11.675-5.16 0-7.74 0-12.9 1.4-5.159 1.399-7.738 5.248-12.898 17.347-5.16 12.098-7.74 43.146-12.899 43.146-5.16 0-7.739-14.164-12.898-26.597-5.16-12.434-7.74-25.181-12.9-35.57-5.159-10.39-7.738-16.377-12.898-16.377-5.16 0-7.74.792-12.899.792-5.159 0-7.739-12.549-12.898-12.549-5.16 0-7.74 7.856-12.899 7.856-5.16 0-7.74-4.01-12.899-4.01-5.16 0-7.739 13.849-12.898 13.849-5.16 0-7.74-14.135-12.9-14.135-5.159 0-7.738.139-12.898 2.886-5.16 2.746-7.74 10.849-12.899 10.849-5.16 0-7.739 0-12.898-1.2-5.16-1.2-7.74-7.68-12.9-7.68-5.159 0-7.738 6.47-12.898 6.47-5.16 0-7.74-7.233-12.899-7.233-5.16 0-7.739 11.144-12.898 11.144-5.16 0-7.74-.789-12.9-1.214-5.159-.425-7.738-.911-12.898-.911-5.16 0-7.74 13.984-12.899 13.984-5.16 0-7.739-.88-12.898-1.473-5.16-.592-7.74 0-12.899-1.488-5.16-1.488-7.74-10.65-12.899-16.196-5.16-5.547-7.739-11.535-12.898-11.535-5.16 0-7.74 104.527-12.9 108.71-5.159 4.181-7.738 2.413-12.898 4.181-5.16 1.768-7.74 4.659-12.899 4.659-5.16 0-7.739-2.376-12.898-2.376-5.16 0-7.74 3.11-12.9 3.11-5.159 0-7.738-4.789-12.898-4.789-15.478 0-23.218 5.675-38.696 21.559-5.16 5.294-7.74 31.386-12.899 31.386-5.16 0-7.74-10.519-12.899-10.519-5.16 0-7.739 60.697-12.898 64.692-5.16 3.995-7.74 1.87-12.899 3.995-5.16 2.125-7.74 4.67-12.899 6.63-5.16 1.96-7.739 1.46-12.899 3.172-5.159 1.71-7.739 5.383-12.898 5.383-5.16 0-7.74-.048-12.899-.048-5.16 0-7.74 2.38-12.899 2.38-5.16 0-7.739-.97-12.898-3.455-5.16-2.485-7.74-6.174-12.9-8.968-5.159-2.795-7.738-3.396-12.898-5.005-5.16-1.61-7.74-3.041-12.899-3.041-5.16 0-7.739 38.766-12.898 38.766-5.16 0-7.74-2.105-12.9-2.332-5.159-.226-7.738-.226-12.898-.226-5.16 0-7.74 3.41-12.899 4.162-5.16.752-7.739.752-12.898.752-5.16 0-7.74-.003-12.9-.044-5.159-.041-7.738-.162-12.898-.162-5.16 0-7.739.235-12.899.235-5.159 0-7.739-.029-12.898-.123-5.16-.094-7.74-.347-12.899-.347-5.16 0-7.74.145-12.899.384-5.16.24-7.739.511-12.898.811-5.16.3-7.74.69-12.9.69-5.159 0-7.738-.2-12.898-.2-5.16 0-7.74.129-12.899.129-5.16 0-7.739-1.258-12.898-1.336-5.16-.077-7.74 0-12.9-.077-5.159-.078-7.738-.356-12.898-1.146-5.16-.79-7.74-2.804-12.899-2.804-5.16 0-7.739.255-12.898.992-5.16.736-7.74 2.69-12.9 2.69-5.159 0-7.738-1.322-12.898-1.487-5.16-.165-7.739-.165-12.899-.165-5.159 0-7.739.011-12.898.43-5.16.417-12.899 1.66-12.899 1.66v8.796c5.16-.097 7.74-.097 12.899-.097 5.16 0 7.739.064 12.898.064 5.16 0 7.74-.061 12.9-.061 5.159 0 7.738.148 12.898.148 5.16 0 7.74-.068 12.899-.068 5.16 0 7.739.024 12.898.032 5.16.009 7.74 0 12.9.012 5.159.011 7.738.236 12.898.236 5.16 0 7.74-.004 12.899-.004 5.16 0 7.739 0 12.898.052 5.16.051 7.74.233 12.9.24 5.159.008 7.738.008 12.898.008h12.899c5.159 0 7.739 0 12.898-.011 5.16-.012 7.74 0 12.899-.064 5.16-.063 7.74-.272 12.899-.295 5.16-.024 7.739-.002 12.898-.024 5.16-.022 7.74-.087 12.9-.087H257.974c5.16 0 7.739.193 12.898.193 5.16 0 7.74-.015 12.9-.015 5.159 0 7.738 0 12.898.003 5.16.003 7.74.064 12.899.141 5.16.078 7.739.207 12.898.247 5.16.04 7.74.04 12.9.04 5.159 0 7.738-.006 12.898-.01 5.16-.003 7.74-.006 12.899-.006 5.16 0 7.739.022 12.898.022 5.16 0 7.74-.037 12.899-.054 5.16-.017 7.74-.018 12.899-.034 5.16-.016 7.739-.046 12.898-.046 5.16 0 7.74.096 12.9.096 5.159 0 7.738-.096 12.898-.096h12.899c5.16 0 7.739-26.113 12.898-26.113 5.16 0 7.74 26.23 12.9 26.23 5.159 0 7.738-31.636 12.898-31.636 15.478 0 23.218 4.726 38.696 4.726 5.16 0 7.74-2.738 12.899-2.738 5.16 0 7.74 0 12.899.956 5.16.956 7.739 3.887 12.898 3.887 5.16 0 7.74-2.961 12.899-2.961 5.16 0 7.74 1.185 12.899 1.185 5.16 0 7.739-2.218 12.899-2.218 5.159 0 7.739 3.112 12.898 3.112 5.16 0 7.74-.685 12.899-.685 5.16 0 7.74.046 12.899.085 5.16.039 7.739.078 12.898.111 5.16.033 7.74 0 12.9.055 5.159.055 7.738.523 12.898.523 5.16 0 7.74-.502 12.899-.672 5.16-.17 7.739-.028 12.898-.18 5.16-.15 7.74-.372 12.9-.577 5.159-.205 7.738-.449 12.898-.449 5.16 0 7.74.234 12.899.48 5.16.244 7.739.744 12.898.744 5.16 0 7.74-.661 12.9-1.126 5.159-.464 7.738-1.195 12.898-1.195 5.16 0 7.739 1.516 12.899 1.791 5.159.276 7.739.035 12.898.276 5.16.24 7.74.928 12.899.928 5.16 0 7.74-1.39 12.899-1.39 5.16 0 7.739.293 12.898.293 5.16 0 7.74 0 12.9-.577 5.159-.577 7.738-4.758 12.898-5.919 5.16-1.16 7.74-1.16 12.899-1.16 5.16 0 7.739.275 12.898.973 5.16.697 7.74 1.335 12.9 2.517 5.159 1.181 7.738 3.39 12.898 3.39 5.16 0 7.74-.175 12.899-.175 5.16 0 7.739 7.002 12.898 7.652 5.16.65 7.74.39 12.9.65 5.159.26 7.738.65 12.898.65 5.16 0 7.739-2.838 12.899-2.838 5.159 0 7.739 2.32 12.898 2.32 5.16 0 7.74-1.418 12.899-1.418V353M0 352.088s7.74-.097 12.899-.097c5.16 0 7.739.064 12.898.064 5.16 0 7.74-.061 12.9-.061 5.159 0 7.738.148 12.898.148 5.16 0 7.74-.068 12.899-.068 5.16 0 7.739.024 12.898.032 5.16.009 7.74 0 12.9.012 5.159.011 7.738.236 12.898.236 5.16 0 7.74-.004 12.899-.004 5.16 0 7.739 0 12.898.052 5.16.051 7.74.233 12.9.24 5.159.008 7.738.008 12.898.008h12.899c5.159 0 7.739 0 12.898-.011 5.16-.012 7.74 0 12.899-.064 5.16-.063 7.74-.272 12.899-.295 5.16-.024 7.739-.002 12.898-.024 5.16-.022 7.74-.087 12.9-.087H257.974c5.16 0 7.739.193 12.898.193 5.16 0 7.74-.015 12.9-.015 5.159 0 7.738 0 12.898.003 5.16.003 7.74.064 12.899.141 5.16.078 7.739.207 12.898.247 5.16.04 7.74.04 12.9.04 5.159 0 7.738-.006 12.898-.01 5.16-.003 7.74-.006 12.899-.006 5.16 0 7.739.022 12.898.022 5.16 0 7.74-.037 12.899-.054 5.16-.017 7.74-.018 12.899-.034 5.16-.016 7.739-.046 12.898-.046 5.16 0 7.74.096 12.9.096 5.159 0 7.738-.096 12.898-.096h12.899c5.16 0 7.739-26.113 12.898-26.113 5.16 0 7.74 26.23 12.9 26.23 5.159 0 7.738-31.636 12.898-31.636 15.478 0 23.218 4.726 38.696 4.726 5.16 0 7.74-2.738 12.899-2.738 5.16 0 7.74 0 12.899.956 5.16.956 7.739 3.887 12.898 3.887 5.16 0 7.74-2.961 12.899-2.961 5.16 0 7.74 1.185 12.899 1.185 5.16 0 7.739-2.218 12.899-2.218 5.159 0 7.739 3.112 12.898 3.112 5.16 0 7.74-.685 12.899-.685 5.16 0 7.74.046 12.899.085 5.16.039 7.739.078 12.898.111 5.16.033 7.74 0 12.9.055 5.159.055 7.738.523 12.898.523 5.16 0 7.74-.502 12.899-.672 5.16-.17 7.739-.028 12.898-.18 5.16-.15 7.74-.372 12.9-.577 5.159-.205 7.738-.449 12.898-.449 5.16 0 7.74.234 12.899.48 5.16.244 7.739.744 12.898.744 5.16 0 7.74-.661 12.9-1.126 5.159-.464 7.738-1.195 12.898-1.195 5.16 0 7.739 1.516 12.899 1.791 5.159.276 7.739.035 12.898.276 5.16.24 7.74.928 12.899.928 5.16 0 7.74-1.39 12.899-1.39 5.16 0 7.739.293 12.898.293 5.16 0 7.74 0 12.9-.577 5.159-.577 7.738-4.758 12.898-5.919 5.16-1.16 7.74-1.16 12.899-1.16 5.16 0 7.739.275 12.898.973 5.16.697 7.74 1.335 12.9 2.517 5.159 1.181 7.738 3.39 12.898 3.39 5.16 0 7.74-.175 12.899-.175 5.16 0 7.739 7.002 12.898 7.652 5.16.65 7.74.39 12.9.65 5.159.26 7.738.65 12.898.65 5.16 0 7.739-2.838 12.899-2.838 5.159 0 7.739 2.32 12.898 2.32 5.16 0 12.899-1.418 12.899-1.418V122.65s-7.74-12.133-12.899-18.738c-5.16-6.606-7.739-14.289-12.898-14.289-5.16 0-7.74 38.021-12.9 38.021-5.159 0-7.738-2.283-12.898-3.711-5.16-1.428-7.74-.408-12.899-3.429-5.16-3.02-7.739-11.675-12.898-11.675-5.16 0-7.74 0-12.9 1.4-5.159 1.399-7.738 5.248-12.898 17.347-5.16 12.098-7.74 43.146-12.899 43.146-5.16 0-7.739-14.164-12.898-26.597-5.16-12.434-7.74-25.181-12.9-35.57-5.159-10.39-7.738-16.377-12.898-16.377-5.16 0-7.74.792-12.899.792-5.159 0-7.739-12.549-12.898-12.549-5.16 0-7.74 7.856-12.899 7.856-5.16 0-7.74-4.01-12.899-4.01-5.16 0-7.739 13.849-12.898 13.849-5.16 0-7.74-14.135-12.9-14.135-5.159 0-7.738.139-12.898 2.886-5.16 2.746-7.74 10.849-12.899 10.849-5.16 0-7.739 0-12.898-1.2-5.16-1.2-7.74-7.68-12.9-7.68-5.159 0-7.738 6.47-12.898 6.47-5.16 0-7.74-7.233-12.899-7.233-5.16 0-7.739 11.144-12.898 11.144-5.16 0-7.74-.789-12.9-1.214-5.159-.425-7.738-.911-12.898-.911-5.16 0-7.74 13.984-12.899 13.984-5.16 0-7.739-.88-12.898-1.473-5.16-.592-7.74 0-12.899-1.488-5.16-1.488-7.74-10.65-12.899-16.196-5.16-5.547-7.739-11.535-12.898-11.535-5.16 0-7.74 104.527-12.9 108.71-5.159 4.181-7.738 2.413-12.898 4.181-5.16 1.768-7.74 4.659-12.899 4.659-5.16 0-7.739-2.376-12.898-2.376-5.16 0-7.74 3.11-12.9 3.11-5.159 0-7.738-4.789-12.898-4.789-15.478 0-23.218 5.675-38.696 21.559-5.16 5.294-7.74 31.386-12.899 31.386-5.16 0-7.74-10.519-12.899-10.519-5.16 0-7.739 60.697-12.898 64.692-5.16 3.995-7.74 1.87-12.899 3.995-5.16 2.125-7.74 4.67-12.899 6.63-5.16 1.96-7.739 1.46-12.899 3.172-5.159 1.71-7.739 5.383-12.898 5.383-5.16 0-7.74-.048-12.899-.048-5.16 0-7.74 2.38-12.899 2.38-5.16 0-7.739-.97-12.898-3.455-5.16-2.485-7.74-6.174-12.9-8.968-5.159-2.795-7.738-3.396-12.898-5.005-5.16-1.61-7.74-3.041-12.899-3.041-5.16 0-7.739 38.766-12.898 38.766-5.16 0-7.74-2.105-12.9-2.332-5.159-.226-7.738-.226-12.898-.226-5.16 0-7.74 3.41-12.899 4.162-5.16.752-7.739.752-12.898.752-5.16 0-7.74-.003-12.9-.044-5.159-.041-7.738-.162-12.898-.162-5.16 0-7.739.235-12.899.235-5.159 0-7.739-.029-12.898-.123-5.16-.094-7.74-.347-12.899-.347-5.16 0-7.74.145-12.899.384-5.16.24-7.739.511-12.898.811-5.16.3-7.74.69-12.9.69-5.159 0-7.738-.2-12.898-.2-5.16 0-7.74.129-12.899.129-5.16 0-7.739-1.258-12.898-1.336-5.16-.077-7.74 0-12.9-.077-5.159-.078-7.738-.356-12.898-1.146-5.16-.79-7.74-2.804-12.899-2.804-5.16 0-7.739.255-12.898.992-5.16.736-7.74 2.69-12.9 2.69-5.159 0-7.738-1.322-12.898-1.487-5.16-.165-7.739-.165-12.899-.165-5.159 0-7.739.011-12.898.43-5.16.417-12.899 1.66-12.899 1.66v8.796" class="highcharts-tracker"/>
</g>
<g class="highcharts-series highcharts-series-3 highcharts-areasplinerange-series" transform="translate(81 94)" clip-path="url(#a)">
<path fill="rgba(166,42,164,0.1)" d="M1019 331.727V82.864s-7.74-3.207-12.899-3.207c-5.16 0-7.739 23.727-12.898 23.727-5.16 0-7.74-13.674-12.9-20.937-5.159-7.263-7.738-15.377-12.898-15.377-5.16 0-7.74 1.432-12.899 2.783-5.16 1.351-7.739 3.972-12.898 3.972-5.16 0-7.74-5.81-12.9-9.08-5.159-3.27-7.738-7.272-12.898-7.272-5.16 0-7.74 6.259-12.899 6.259-5.16 0-7.739-4.581-12.898-4.581-5.16 0-7.74 2.144-12.9 2.144-5.159 0-7.738 0-12.898-.027-5.16-.028-7.74-6.617-12.899-11.996-5.159-5.38-7.739-14.901-12.898-14.901-5.16 0-7.74 46.367-12.899 48.185-5.16 1.819-7.74 0-12.899 1.819-5.16 1.819-7.739 15.484-12.898 15.484-5.16 0-7.74-18.47-12.9-18.591-5.159-.122-7.738 0-12.898-.122-5.16-.122-7.74-.005-12.899-1.798-5.16-1.792-7.739-7.165-12.898-7.165-5.16 0-7.74 7.456-12.9 10.113-5.159 2.657-7.738.002-12.898 3.174-5.16 3.172-7.74 9.206-12.899 12.685-5.16 3.48-7.739.725-12.898 4.711-5.16 3.987-7.74 15.22-12.9 15.22-5.159 0-7.738-29.897-12.898-29.897-5.16 0-7.74 9.966-12.899 9.966-5.16 0-7.739-19.426-12.898-21.092-5.16-1.665-7.74 0-12.899-1.665-5.16-1.666-7.74-8.117-12.899-18.479-5.16-10.36-7.739-33.327-12.898-33.327-5.16 0-7.74 166.701-12.9 166.701-5.159 0-7.738-5.773-12.898-6.68-5.16-.909-7.74-.165-12.899-.909-5.16-.744-7.739-2.812-12.898-2.812-5.16 0-7.74.652-12.9.652-5.159 0-7.738-1.05-12.898-1.05-5.16 0-7.74 4.062-12.899 6.029-5.16 1.967-7.739 2.24-12.898 3.805-5.16 1.565-7.74.122-12.9 4.02-5.159 3.897-7.738 14.892-12.898 15.468-5.16.576-7.74 0-12.899.576-5.16.576-7.739 3.857-12.898 5.666-5.16 1.81-7.74 1.662-12.899 3.38-5.16 1.717-7.74 1.768-12.899 5.206-5.16 3.439-7.739 9.201-12.899 11.986-5.159 2.786-7.739 2.786-12.898 2.786-5.16 0-7.74-3.044-12.899-3.044-5.16 0-7.74 1.336-12.899 1.336-5.16 0-7.739-.805-12.898-.805-5.16 0-7.74 33.338-12.9 33.338-5.159 0-7.738-29.631-12.898-29.631-5.16 0-7.74 0-12.899 2.082-5.16 2.083-7.739 64.56-12.898 86.813-5.16 22.252-7.74 24.45-12.9 24.45h-51.595c-5.159 0-7.738-11.197-12.898-11.197-5.16 0-7.739 11.196-12.899 11.196H206.38c-5.16 0-7.74 0-12.899-.354-5.16-.355-7.74-16.544-12.899-16.544-5.16 0-7.739 15.222-12.898 15.222-5.16 0-7.74-9.122-12.9-9.122-5.159 0-7.738 10.615-12.898 10.615h-12.899c-5.16 0-7.739.183-12.898.183-5.16 0-7.74-1.556-12.9-1.556-5.159 0-7.738 1.557-12.898 1.557H77.392c-5.16 0-7.739-27.028-12.898-27.028-5.16 0-7.74 27.028-12.9 27.028-5.159 0-7.738-.006-12.898-.007H25.797c-5.159 0-7.739.007-12.898.007-5.16 0-12.899-.01-12.899-.01V352.955h296.671c5.16 0 7.74 0 12.899-.28 5.16-.28 7.739-23.488 12.898-23.488 5.16 0 7.74 11.06 12.9 11.06 5.159 0 7.738-12.955 12.898-12.955 5.16 0 7.74 5.825 12.899 7.523 5.16 1.698 7.739 1.698 12.898 1.698 5.16 0 7.74-.884 12.899-1.523 5.16-.64 7.74-1.425 12.899-1.672 5.16-.248 7.739-.248 12.898-.248 5.16 0 7.74 2.273 12.9 2.273 5.159 0 7.738-3.592 12.898-4.003 5.16-.41 7.74-.41 12.899-.41 5.16 0 7.739.103 12.898.103 5.16 0 7.74 0 12.9-.431 5.159-.431 7.738-5.396 12.898-5.725 5.16-.329 7.74 0 12.899-.329 5.16-.329 7.739-1.045 12.898-1.718 5.16-.674 7.74-1.65 12.9-1.65 5.159 0 7.738.438 12.898.438 5.16 0 7.74-.691 12.899-.691 5.16 0 7.739 1.626 12.898 1.626 5.16 0 7.74-1.166 12.899-1.166 5.16 0 7.74 2.05 12.899 2.05 5.16 0 7.739-4.48 12.899-4.48 5.159 0 7.739 8.778 12.898 10.137 5.16 1.359 7.74 1.359 12.899 1.359 5.16 0 7.74-.103 12.899-.872 5.16-.769 7.739-2.972 12.898-2.972 5.16 0 7.74.139 12.9.139 5.159 0 7.738-1.518 12.898-1.518 5.16 0 7.74 2.964 12.899 3.098 5.16.134 7.739 0 12.898.134 5.16.134 7.74.958 12.9.958 5.159 0 7.738-2.68 12.898-2.68 5.16 0 7.74 1.181 12.899 1.181 5.16 0 7.739 0 12.898-.015 5.16-.016 7.74-.508 12.9-1.459 5.159-.95 7.738-3.295 12.898-3.295 5.16 0 7.739 1.872 12.899 1.872 5.159 0 7.739-1.298 12.898-1.298 5.16 0 7.74.63 12.899 1.114 5.16.485 7.74 1.307 12.899 1.307 5.16 0 7.739-.022 12.898-.229 5.16-.206 7.74-.562 12.9-.805 5.159-.242 7.738-.406 12.898-.406 5.16 0 7.74 1.386 12.899 1.386 5.16 0 7.739-.676 12.898-.676 5.16 0 7.74.146 12.9.657 5.159.512 7.738 1.9 12.898 1.9 5.16 0 7.74-.356 12.899-.356 5.16 0 7.739.062 12.898.302 5.16.24 7.74.522 12.9.899 5.159.376 7.738.985 12.898.985 5.16 0 7.739-3.59 12.899-3.59 5.159 0 7.739 2.446 12.898 3.548 5.16 1.103 7.74 0 12.899 1.965V353M0 352.955h296.671c5.16 0 7.74 0 12.899-.28 5.16-.28 7.739-23.488 12.898-23.488 5.16 0 7.74 11.06 12.9 11.06 5.159 0 7.738-12.955 12.898-12.955 5.16 0 7.74 5.825 12.899 7.523 5.16 1.698 7.739 1.698 12.898 1.698 5.16 0 7.74-.884 12.899-1.523 5.16-.64 7.74-1.425 12.899-1.672 5.16-.248 7.739-.248 12.898-.248 5.16 0 7.74 2.273 12.9 2.273 5.159 0 7.738-3.592 12.898-4.003 5.16-.41 7.74-.41 12.899-.41 5.16 0 7.739.103 12.898.103 5.16 0 7.74 0 12.9-.431 5.159-.431 7.738-5.396 12.898-5.725 5.16-.329 7.74 0 12.899-.329 5.16-.329 7.739-1.045 12.898-1.718 5.16-.674 7.74-1.65 12.9-1.65 5.159 0 7.738.438 12.898.438 5.16 0 7.74-.691 12.899-.691 5.16 0 7.739 1.626 12.898 1.626 5.16 0 7.74-1.166 12.899-1.166 5.16 0 7.74 2.05 12.899 2.05 5.16 0 7.739-4.48 12.899-4.48 5.159 0 7.739 8.778 12.898 10.137 5.16 1.359 7.74 1.359 12.899 1.359 5.16 0 7.74-.103 12.899-.872 5.16-.769 7.739-2.972 12.898-2.972 5.16 0 7.74.139 12.9.139 5.159 0 7.738-1.518 12.898-1.518 5.16 0 7.74 2.964 12.899 3.098 5.16.134 7.739 0 12.898.134 5.16.134 7.74.958 12.9.958 5.159 0 7.738-2.68 12.898-2.68 5.16 0 7.74 1.181 12.899 1.181 5.16 0 7.739 0 12.898-.015 5.16-.016 7.74-.508 12.9-1.459 5.159-.95 7.738-3.295 12.898-3.295 5.16 0 7.739 1.872 12.899 1.872 5.159 0 7.739-1.298 12.898-1.298 5.16 0 7.74.63 12.899 1.114 5.16.485 7.74 1.307 12.899 1.307 5.16 0 7.739-.022 12.898-.229 5.16-.206 7.74-.562 12.9-.805 5.159-.242 7.738-.406 12.898-.406 5.16 0 7.74 1.386 12.899 1.386 5.16 0 7.739-.676 12.898-.676 5.16 0 7.74.146 12.9.657 5.159.512 7.738 1.9 12.898 1.9 5.16 0 7.74-.356 12.899-.356 5.16 0 7.739.062 12.898.302 5.16.24 7.74.522 12.9.899 5.159.376 7.738.985 12.898.985 5.16 0 7.739-3.59 12.899-3.59 5.159 0 7.739 2.446 12.898 3.548 5.16 1.103 12.899 1.965 12.899 1.965V82.864s-7.74-3.207-12.899-3.207c-5.16 0-7.739 23.727-12.898 23.727-5.16 0-7.74-13.674-12.9-20.937-5.159-7.263-7.738-15.377-12.898-15.377-5.16 0-7.74 1.432-12.899 2.783-5.16 1.351-7.739 3.972-12.898 3.972-5.16 0-7.74-5.81-12.9-9.08-5.159-3.27-7.738-7.272-12.898-7.272-5.16 0-7.74 6.259-12.899 6.259-5.16 0-7.739-4.581-12.898-4.581-5.16 0-7.74 2.144-12.9 2.144-5.159 0-7.738 0-12.898-.027-5.16-.028-7.74-6.617-12.899-11.996-5.159-5.38-7.739-14.901-12.898-14.901-5.16 0-7.74 46.367-12.899 48.185-5.16 1.819-7.74 0-12.899 1.819-5.16 1.819-7.739 15.484-12.898 15.484-5.16 0-7.74-18.47-12.9-18.591-5.159-.122-7.738 0-12.898-.122-5.16-.122-7.74-.005-12.899-1.798-5.16-1.792-7.739-7.165-12.898-7.165-5.16 0-7.74 7.456-12.9 10.113-5.159 2.657-7.738.002-12.898 3.174-5.16 3.172-7.74 9.206-12.899 12.685-5.16 3.48-7.739.725-12.898 4.711-5.16 3.987-7.74 15.22-12.9 15.22-5.159 0-7.738-29.897-12.898-29.897-5.16 0-7.74 9.966-12.899 9.966-5.16 0-7.739-19.426-12.898-21.092-5.16-1.665-7.74 0-12.899-1.665-5.16-1.666-7.74-8.117-12.899-18.479-5.16-10.36-7.739-33.327-12.898-33.327-5.16 0-7.74 166.701-12.9 166.701-5.159 0-7.738-5.773-12.898-6.68-5.16-.909-7.74-.165-12.899-.909-5.16-.744-7.739-2.812-12.898-2.812-5.16 0-7.74.652-12.9.652-5.159 0-7.738-1.05-12.898-1.05-5.16 0-7.74 4.062-12.899 6.029-5.16 1.967-7.739 2.24-12.898 3.805-5.16 1.565-7.74.122-12.9 4.02-5.159 3.897-7.738 14.892-12.898 15.468-5.16.576-7.74 0-12.899.576-5.16.576-7.739 3.857-12.898 5.666-5.16 1.81-7.74 1.662-12.899 3.38-5.16 1.717-7.74 1.768-12.899 5.206-5.16 3.439-7.739 9.201-12.899 11.986-5.159 2.786-7.739 2.786-12.898 2.786-5.16 0-7.74-3.044-12.899-3.044-5.16 0-7.74 1.336-12.899 1.336-5.16 0-7.739-.805-12.898-.805-5.16 0-7.74 33.338-12.9 33.338-5.159 0-7.738-29.631-12.898-29.631-5.16 0-7.74 0-12.899 2.082-5.16 2.083-7.739 64.56-12.898 86.813-5.16 22.252-7.74 24.45-12.9 24.45h-51.595c-5.159 0-7.738-11.197-12.898-11.197-5.16 0-7.739 11.196-12.899 11.196H206.38c-5.16 0-7.74 0-12.899-.354-5.16-.355-7.74-16.544-12.899-16.544-5.16 0-7.739 15.222-12.898 15.222-5.16 0-7.74-9.122-12.9-9.122-5.159 0-7.738 10.615-12.898 10.615h-12.899c-5.16 0-7.739.183-12.898.183-5.16 0-7.74-1.556-12.9-1.556-5.159 0-7.738 1.557-12.898 1.557H77.392c-5.16 0-7.739-27.028-12.898-27.028-5.16 0-7.74 27.028-12.9 27.028-5.159 0-7.738-.006-12.898-.007H25.797c-5.159 0-7.739.007-12.898.007-5.16 0-12.899-.01-12.899-.01v.01" class="highcharts-area"/>
<path fill="none" d="M0 352.955h296.671c5.16 0 7.74 0 12.899-.28 5.16-.28 7.739-23.488 12.898-23.488 5.16 0 7.74 11.06 12.9 11.06 5.159 0 7.738-12.955 12.898-12.955 5.16 0 7.74 5.825 12.899 7.523 5.16 1.698 7.739 1.698 12.898 1.698 5.16 0 7.74-.884 12.899-1.523 5.16-.64 7.74-1.425 12.899-1.672 5.16-.248 7.739-.248 12.898-.248 5.16 0 7.74 2.273 12.9 2.273 5.159 0 7.738-3.592 12.898-4.003 5.16-.41 7.74-.41 12.899-.41 5.16 0 7.739.103 12.898.103 5.16 0 7.74 0 12.9-.431 5.159-.431 7.738-5.396 12.898-5.725 5.16-.329 7.74 0 12.899-.329 5.16-.329 7.739-1.045 12.898-1.718 5.16-.674 7.74-1.65 12.9-1.65 5.159 0 7.738.438 12.898.438 5.16 0 7.74-.691 12.899-.691 5.16 0 7.739 1.626 12.898 1.626 5.16 0 7.74-1.166 12.899-1.166 5.16 0 7.74 2.05 12.899 2.05 5.16 0 7.739-4.48 12.899-4.48 5.159 0 7.739 8.778 12.898 10.137 5.16 1.359 7.74 1.359 12.899 1.359 5.16 0 7.74-.103 12.899-.872 5.16-.769 7.739-2.972 12.898-2.972 5.16 0 7.74.139 12.9.139 5.159 0 7.738-1.518 12.898-1.518 5.16 0 7.74 2.964 12.899 3.098 5.16.134 7.739 0 12.898.134 5.16.134 7.74.958 12.9.958 5.159 0 7.738-2.68 12.898-2.68 5.16 0 7.74 1.181 12.899 1.181 5.16 0 7.739 0 12.898-.015 5.16-.016 7.74-.508 12.9-1.459 5.159-.95 7.738-3.295 12.898-3.295 5.16 0 7.739 1.872 12.899 1.872 5.159 0 7.739-1.298 12.898-1.298 5.16 0 7.74.63 12.899 1.114 5.16.485 7.74 1.307 12.899 1.307 5.16 0 7.739-.022 12.898-.229 5.16-.206 7.74-.562 12.9-.805 5.159-.242 7.738-.406 12.898-.406 5.16 0 7.74 1.386 12.899 1.386 5.16 0 7.739-.676 12.898-.676 5.16 0 7.74.146 12.9.657 5.159.512 7.738 1.9 12.898 1.9 5.16 0 7.74-.356 12.899-.356 5.16 0 7.739.062 12.898.302 5.16.24 7.74.522 12.9.899 5.159.376 7.738.985 12.898.985 5.16 0 7.739-3.59 12.899-3.59 5.159 0 7.739 2.446 12.898 3.548 5.16 1.103 12.899 1.965 12.899 1.965m0-248.863s-7.74-3.207-12.899-3.207c-5.16 0-7.739 23.727-12.898 23.727-5.16 0-7.74-13.674-12.9-20.937-5.159-7.263-7.738-15.377-12.898-15.377-5.16 0-7.74 1.432-12.899 2.783-5.16 1.351-7.739 3.972-12.898 3.972-5.16 0-7.74-5.81-12.9-9.08-5.159-3.27-7.738-7.272-12.898-7.272-5.16 0-7.74 6.259-12.899 6.259-5.16 0-7.739-4.581-12.898-4.581-5.16 0-7.74 2.144-12.9 2.144-5.159 0-7.738 0-12.898-.027-5.16-.028-7.74-6.617-12.899-11.996-5.159-5.38-7.739-14.901-12.898-14.901-5.16 0-7.74 46.367-12.899 48.185-5.16 1.819-7.74 0-12.899 1.819-5.16 1.819-7.739 15.484-12.898 15.484-5.16 0-7.74-18.47-12.9-18.591-5.159-.122-7.738 0-12.898-.122-5.16-.122-7.74-.005-12.899-1.798-5.16-1.792-7.739-7.165-12.898-7.165-5.16 0-7.74 7.456-12.9 10.113-5.159 2.657-7.738.002-12.898 3.174-5.16 3.172-7.74 9.206-12.899 12.685-5.16 3.48-7.739.725-12.898 4.711-5.16 3.987-7.74 15.22-12.9 15.22-5.159 0-7.738-29.897-12.898-29.897-5.16 0-7.74 9.966-12.899 9.966-5.16 0-7.739-19.426-12.898-21.092-5.16-1.665-7.74 0-12.899-1.665-5.16-1.666-7.74-8.117-12.899-18.479-5.16-10.36-7.739-33.327-12.898-33.327-5.16 0-7.74 166.701-12.9 166.701-5.159 0-7.738-5.773-12.898-6.68-5.16-.909-7.74-.165-12.899-.909-5.16-.744-7.739-2.812-12.898-2.812-5.16 0-7.74.652-12.9.652-5.159 0-7.738-1.05-12.898-1.05-5.16 0-7.74 4.062-12.899 6.029-5.16 1.967-7.739 2.24-12.898 3.805-5.16 1.565-7.74.122-12.9 4.02-5.159 3.897-7.738 14.892-12.898 15.468-5.16.576-7.74 0-12.899.576-5.16.576-7.739 3.857-12.898 5.666-5.16 1.81-7.74 1.662-12.899 3.38-5.16 1.717-7.74 1.768-12.899 5.206-5.16 3.439-7.739 9.201-12.899 11.986-5.159 2.786-7.739 2.786-12.898 2.786-5.16 0-7.74-3.044-12.899-3.044-5.16 0-7.74 1.336-12.899 1.336-5.16 0-7.739-.805-12.898-.805-5.16 0-7.74 33.338-12.9 33.338-5.159 0-7.738-29.631-12.898-29.631-5.16 0-7.74 0-12.899 2.082-5.16 2.083-7.739 64.56-12.898 86.813-5.16 22.252-7.74 24.45-12.9 24.45h-51.595c-5.159 0-7.738-11.197-12.898-11.197-5.16 0-7.739 11.196-12.899 11.196H206.38c-5.16 0-7.74 0-12.899-.354-5.16-.355-7.74-16.544-12.899-16.544-5.16 0-7.739 15.222-12.898 15.222-5.16 0-7.74-9.122-12.9-9.122-5.159 0-7.738 10.615-12.898 10.615h-12.899c-5.16 0-7.739.183-12.898.183-5.16 0-7.74-1.556-12.9-1.556-5.159 0-7.738 1.557-12.898 1.557H77.392c-5.16 0-7.739-27.028-12.898-27.028-5.16 0-7.74 27.028-12.9 27.028-5.159 0-7.738-.006-12.898-.007H25.797c-5.159 0-7.739.007-12.898.007-5.16 0-12.899-.01-12.899-.01" class="highcharts-graph"/>
<path fill="rgba(192,192,192,0.0001)" d="M1019 331.727V82.864s-7.74-3.207-12.899-3.207c-5.16 0-7.739 23.727-12.898 23.727-5.16 0-7.74-13.674-12.9-20.937-5.159-7.263-7.738-15.377-12.898-15.377-5.16 0-7.74 1.432-12.899 2.783-5.16 1.351-7.739 3.972-12.898 3.972-5.16 0-7.74-5.81-12.9-9.08-5.159-3.27-7.738-7.272-12.898-7.272-5.16 0-7.74 6.259-12.899 6.259-5.16 0-7.739-4.581-12.898-4.581-5.16 0-7.74 2.144-12.9 2.144-5.159 0-7.738 0-12.898-.027-5.16-.028-7.74-6.617-12.899-11.996-5.159-5.38-7.739-14.901-12.898-14.901-5.16 0-7.74 46.367-12.899 48.185-5.16 1.819-7.74 0-12.899 1.819-5.16 1.819-7.739 15.484-12.898 15.484-5.16 0-7.74-18.47-12.9-18.591-5.159-.122-7.738 0-12.898-.122-5.16-.122-7.74-.005-12.899-1.798-5.16-1.792-7.739-7.165-12.898-7.165-5.16 0-7.74 7.456-12.9 10.113-5.159 2.657-7.738.002-12.898 3.174-5.16 3.172-7.74 9.206-12.899 12.685-5.16 3.48-7.739.725-12.898 4.711-5.16 3.987-7.74 15.22-12.9 15.22-5.159 0-7.738-29.897-12.898-29.897-5.16 0-7.74 9.966-12.899 9.966-5.16 0-7.739-19.426-12.898-21.092-5.16-1.665-7.74 0-12.899-1.665-5.16-1.666-7.74-8.117-12.899-18.479-5.16-10.36-7.739-33.327-12.898-33.327-5.16 0-7.74 166.701-12.9 166.701-5.159 0-7.738-5.773-12.898-6.68-5.16-.909-7.74-.165-12.899-.909-5.16-.744-7.739-2.812-12.898-2.812-5.16 0-7.74.652-12.9.652-5.159 0-7.738-1.05-12.898-1.05-5.16 0-7.74 4.062-12.899 6.029-5.16 1.967-7.739 2.24-12.898 3.805-5.16 1.565-7.74.122-12.9 4.02-5.159 3.897-7.738 14.892-12.898 15.468-5.16.576-7.74 0-12.899.576-5.16.576-7.739 3.857-12.898 5.666-5.16 1.81-7.74 1.662-12.899 3.38-5.16 1.717-7.74 1.768-12.899 5.206-5.16 3.439-7.739 9.201-12.899 11.986-5.159 2.786-7.739 2.786-12.898 2.786-5.16 0-7.74-3.044-12.899-3.044-5.16 0-7.74 1.336-12.899 1.336-5.16 0-7.739-.805-12.898-.805-5.16 0-7.74 33.338-12.9 33.338-5.159 0-7.738-29.631-12.898-29.631-5.16 0-7.74 0-12.899 2.082-5.16 2.083-7.739 64.56-12.898 86.813-5.16 22.252-7.74 24.45-12.9 24.45h-51.595c-5.159 0-7.738-11.197-12.898-11.197-5.16 0-7.739 11.196-12.899 11.196H206.38c-5.16 0-7.74 0-12.899-.354-5.16-.355-7.74-16.544-12.899-16.544-5.16 0-7.739 15.222-12.898 15.222-5.16 0-7.74-9.122-12.9-9.122-5.159 0-7.738 10.615-12.898 10.615h-12.899c-5.16 0-7.739.183-12.898.183-5.16 0-7.74-1.556-12.9-1.556-5.159 0-7.738 1.557-12.898 1.557H77.392c-5.16 0-7.739-27.028-12.898-27.028-5.16 0-7.74 27.028-12.9 27.028-5.159 0-7.738-.006-12.898-.007H25.797c-5.159 0-7.739.007-12.898.007-5.16 0-12.899-.01-12.899-.01V352.955h296.671c5.16 0 7.74 0 12.899-.28 5.16-.28 7.739-23.488 12.898-23.488 5.16 0 7.74 11.06 12.9 11.06 5.159 0 7.738-12.955 12.898-12.955 5.16 0 7.74 5.825 12.899 7.523 5.16 1.698 7.739 1.698 12.898 1.698 5.16 0 7.74-.884 12.899-1.523 5.16-.64 7.74-1.425 12.899-1.672 5.16-.248 7.739-.248 12.898-.248 5.16 0 7.74 2.273 12.9 2.273 5.159 0 7.738-3.592 12.898-4.003 5.16-.41 7.74-.41 12.899-.41 5.16 0 7.739.103 12.898.103 5.16 0 7.74 0 12.9-.431 5.159-.431 7.738-5.396 12.898-5.725 5.16-.329 7.74 0 12.899-.329 5.16-.329 7.739-1.045 12.898-1.718 5.16-.674 7.74-1.65 12.9-1.65 5.159 0 7.738.438 12.898.438 5.16 0 7.74-.691 12.899-.691 5.16 0 7.739 1.626 12.898 1.626 5.16 0 7.74-1.166 12.899-1.166 5.16 0 7.74 2.05 12.899 2.05 5.16 0 7.739-4.48 12.899-4.48 5.159 0 7.739 8.778 12.898 10.137 5.16 1.359 7.74 1.359 12.899 1.359 5.16 0 7.74-.103 12.899-.872 5.16-.769 7.739-2.972 12.898-2.972 5.16 0 7.74.139 12.9.139 5.159 0 7.738-1.518 12.898-1.518 5.16 0 7.74 2.964 12.899 3.098 5.16.134 7.739 0 12.898.134 5.16.134 7.74.958 12.9.958 5.159 0 7.738-2.68 12.898-2.68 5.16 0 7.74 1.181 12.899 1.181 5.16 0 7.739 0 12.898-.015 5.16-.016 7.74-.508 12.9-1.459 5.159-.95 7.738-3.295 12.898-3.295 5.16 0 7.739 1.872 12.899 1.872 5.159 0 7.739-1.298 12.898-1.298 5.16 0 7.74.63 12.899 1.114 5.16.485 7.74 1.307 12.899 1.307 5.16 0 7.739-.022 12.898-.229 5.16-.206 7.74-.562 12.9-.805 5.159-.242 7.738-.406 12.898-.406 5.16 0 7.74 1.386 12.899 1.386 5.16 0 7.739-.676 12.898-.676 5.16 0 7.74.146 12.9.657 5.159.512 7.738 1.9 12.898 1.9 5.16 0 7.74-.356 12.899-.356 5.16 0 7.739.062 12.898.302 5.16.24 7.74.522 12.9.899 5.159.376 7.738.985 12.898.985 5.16 0 7.739-3.59 12.899-3.59 5.159 0 7.739 2.446 12.898 3.548 5.16 1.103 7.74 0 12.899 1.965V353M0 352.955h296.671c5.16 0 7.74 0 12.899-.28 5.16-.28 7.739-23.488 12.898-23.488 5.16 0 7.74 11.06 12.9 11.06 5.159 0 7.738-12.955 12.898-12.955 5.16 0 7.74 5.825 12.899 7.523 5.16 1.698 7.739 1.698 12.898 1.698 5.16 0 7.74-.884 12.899-1.523 5.16-.64 7.74-1.425 12.899-1.672 5.16-.248 7.739-.248 12.898-.248 5.16 0 7.74 2.273 12.9 2.273 5.159 0 7.738-3.592 12.898-4.003 5.16-.41 7.74-.41 12.899-.41 5.16 0 7.739.103 12.898.103 5.16 0 7.74 0 12.9-.431 5.159-.431 7.738-5.396 12.898-5.725 5.16-.329 7.74 0 12.899-.329 5.16-.329 7.739-1.045 12.898-1.718 5.16-.674 7.74-1.65 12.9-1.65 5.159 0 7.738.438 12.898.438 5.16 0 7.74-.691 12.899-.691 5.16 0 7.739 1.626 12.898 1.626 5.16 0 7.74-1.166 12.899-1.166 5.16 0 7.74 2.05 12.899 2.05 5.16 0 7.739-4.48 12.899-4.48 5.159 0 7.739 8.778 12.898 10.137 5.16 1.359 7.74 1.359 12.899 1.359 5.16 0 7.74-.103 12.899-.872 5.16-.769 7.739-2.972 12.898-2.972 5.16 0 7.74.139 12.9.139 5.159 0 7.738-1.518 12.898-1.518 5.16 0 7.74 2.964 12.899 3.098 5.16.134 7.739 0 12.898.134 5.16.134 7.74.958 12.9.958 5.159 0 7.738-2.68 12.898-2.68 5.16 0 7.74 1.181 12.899 1.181 5.16 0 7.739 0 12.898-.015 5.16-.016 7.74-.508 12.9-1.459 5.159-.95 7.738-3.295 12.898-3.295 5.16 0 7.739 1.872 12.899 1.872 5.159 0 7.739-1.298 12.898-1.298 5.16 0 7.74.63 12.899 1.114 5.16.485 7.74 1.307 12.899 1.307 5.16 0 7.739-.022 12.898-.229 5.16-.206 7.74-.562 12.9-.805 5.159-.242 7.738-.406 12.898-.406 5.16 0 7.74 1.386 12.899 1.386 5.16 0 7.739-.676 12.898-.676 5.16 0 7.74.146 12.9.657 5.159.512 7.738 1.9 12.898 1.9 5.16 0 7.74-.356 12.899-.356 5.16 0 7.739.062 12.898.302 5.16.24 7.74.522 12.9.899 5.159.376 7.738.985 12.898.985 5.16 0 7.739-3.59 12.899-3.59 5.159 0 7.739 2.446 12.898 3.548 5.16 1.103 12.899 1.965 12.899 1.965V82.864s-7.74-3.207-12.899-3.207c-5.16 0-7.739 23.727-12.898 23.727-5.16 0-7.74-13.674-12.9-20.937-5.159-7.263-7.738-15.377-12.898-15.377-5.16 0-7.74 1.432-12.899 2.783-5.16 1.351-7.739 3.972-12.898 3.972-5.16 0-7.74-5.81-12.9-9.08-5.159-3.27-7.738-7.272-12.898-7.272-5.16 0-7.74 6.259-12.899 6.259-5.16 0-7.739-4.581-12.898-4.581-5.16 0-7.74 2.144-12.9 2.144-5.159 0-7.738 0-12.898-.027-5.16-.028-7.74-6.617-12.899-11.996-5.159-5.38-7.739-14.901-12.898-14.901-5.16 0-7.74 46.367-12.899 48.185-5.16 1.819-7.74 0-12.899 1.819-5.16 1.819-7.739 15.484-12.898 15.484-5.16 0-7.74-18.47-12.9-18.591-5.159-.122-7.738 0-12.898-.122-5.16-.122-7.74-.005-12.899-1.798-5.16-1.792-7.739-7.165-12.898-7.165-5.16 0-7.74 7.456-12.9 10.113-5.159 2.657-7.738.002-12.898 3.174-5.16 3.172-7.74 9.206-12.899 12.685-5.16 3.48-7.739.725-12.898 4.711-5.16 3.987-7.74 15.22-12.9 15.22-5.159 0-7.738-29.897-12.898-29.897-5.16 0-7.74 9.966-12.899 9.966-5.16 0-7.739-19.426-12.898-21.092-5.16-1.665-7.74 0-12.899-1.665-5.16-1.666-7.74-8.117-12.899-18.479-5.16-10.36-7.739-33.327-12.898-33.327-5.16 0-7.74 166.701-12.9 166.701-5.159 0-7.738-5.773-12.898-6.68-5.16-.909-7.74-.165-12.899-.909-5.16-.744-7.739-2.812-12.898-2.812-5.16 0-7.74.652-12.9.652-5.159 0-7.738-1.05-12.898-1.05-5.16 0-7.74 4.062-12.899 6.029-5.16 1.967-7.739 2.24-12.898 3.805-5.16 1.565-7.74.122-12.9 4.02-5.159 3.897-7.738 14.892-12.898 15.468-5.16.576-7.74 0-12.899.576-5.16.576-7.739 3.857-12.898 5.666-5.16 1.81-7.74 1.662-12.899 3.38-5.16 1.717-7.74 1.768-12.899 5.206-5.16 3.439-7.739 9.201-12.899 11.986-5.159 2.786-7.739 2.786-12.898 2.786-5.16 0-7.74-3.044-12.899-3.044-5.16 0-7.74 1.336-12.899 1.336-5.16 0-7.739-.805-12.898-.805-5.16 0-7.74 33.338-12.9 33.338-5.159 0-7.738-29.631-12.898-29.631-5.16 0-7.74 0-12.899 2.082-5.16 2.083-7.739 64.56-12.898 86.813-5.16 22.252-7.74 24.45-12.9 24.45h-51.595c-5.159 0-7.738-11.197-12.898-11.197-5.16 0-7.739 11.196-12.899 11.196H206.38c-5.16 0-7.74 0-12.899-.354-5.16-.355-7.74-16.544-12.899-16.544-5.16 0-7.739 15.222-12.898 15.222-5.16 0-7.74-9.122-12.9-9.122-5.159 0-7.738 10.615-12.898 10.615h-12.899c-5.16 0-7.739.183-12.898.183-5.16 0-7.74-1.556-12.9-1.556-5.159 0-7.738 1.557-12.898 1.557H77.392c-5.16 0-7.739-27.028-12.898-27.028-5.16 0-7.74 27.028-12.9 27.028-5.159 0-7.738-.006-12.898-.007H25.797c-5.159 0-7.739.007-12.898.007-5.16 0-12.899-.01-12.899-.01v.01" class="highcharts-tracker"/>
</g>

<g class="highcharts-series highcharts-series-0 highcharts-line-series" transform="translate(81 94)" clip-path="url(#a)">
<path fill="none" d="M0 348.115l12.899-.098 12.898-.136 12.9.214 12.898.25 12.899-.774 12.898-.53 12.9.568 12.898.459 12.899.218 12.898-.173 12.9.311 12.898.326 12.899.104 12.898-.706 12.899-.653 12.899-.886 12.898.309 12.9-.178 12.898.242 12.899.12 12.898-.652 12.9-1.537 12.898.002 12.899.003 12.898 5.05 12.9.748 12.898-.085 12.899.387 12.898.125 12.899-.209 12.899-.076 12.898-.947 12.9-2.311 12.898-1.285 12.899-.28 12.898-51.04 12.9 18.233 12.898-40.864 38.696-1.712 12.899 1.32 12.899-3.607 12.898 6.07 12.899-3.317 12.899-.79 12.899-5.039 12.898 6.051 12.899 1.728 12.899-.677 12.898-1.126 12.9-2.006 12.898-1.602 12.899-.449 12.898-.957 12.9.259 12.898-2.897 12.899 2.946 12.898 2.714 12.9-3.112 12.898-3.87 12.899 5.79 12.898-2.73 12.899 2.796 12.899-.453 12.898 3.057 12.9.712 12.898.74 12.899 12.38 12.898 12.555 12.9-16.645 12.898-9.098 12.899-2.237 12.898 10.448 12.9-.11 12.898 3.256 12.899-11.786 12.898 6.834 12.899 4.706" class="highcharts-graph" stroke="#04c7fd" stroke-width="2" stroke-linejoin="round" stroke-linecap="round"/>
<path fill="none" d="M-10 348.115H0l12.899-.098 12.898-.136 12.9.214 12.898.25 12.899-.774 12.898-.53 12.9.568 12.898.459 12.899.218 12.898-.173 12.9.311 12.898.326 12.899.104 12.898-.706 12.899-.653 12.899-.886 12.898.309 12.9-.178 12.898.242 12.899.12 12.898-.652 12.9-1.537 12.898.002 12.899.003 12.898 5.05 12.9.748 12.898-.085 12.899.387 12.898.125 12.899-.209 12.899-.076 12.898-.947 12.9-2.311 12.898-1.285 12.899-.28 12.898-51.04 12.9 18.233 12.898-40.864 38.696-1.712 12.899 1.32 12.899-3.607 12.898 6.07 12.899-3.317 12.899-.79 12.899-5.039 12.898 6.051 12.899 1.728 12.899-.677 12.898-1.126 12.9-2.006 12.898-1.602 12.899-.449 12.898-.957 12.9.259 12.898-2.897 12.899 2.946 12.898 2.714 12.9-3.112 12.898-3.87 12.899 5.79 12.898-2.73 12.899 2.796 12.899-.453 12.898 3.057 12.9.712 12.898.74 12.899 12.38 12.898 12.555 12.9-16.645 12.898-9.098 12.899-2.237 12.898 10.448 12.9-.11 12.898 3.256 12.899-11.786 12.898 6.834 12.899 4.706h10" stroke-linejoin="round" stroke="rgba(192,192,192,0.0001)" stroke-width="22" class="highcharts-tracker"/>
</g>

<g class="highcharts-series highcharts-series-2 highcharts-line-series highcharts-series-hover" transform="translate(81 94)" clip-path="url(#a)">
<path fill="none" d="M0 352.955h296.671l12.899-24.45 12.898-34.54 12.9 13.88 12.898-.367 12.899-13.613 12.898 4.883 12.899.533 12.899-3.7 12.898-.163 12.9-7.554 12.898-5.331 12.899-2.341 12.898-4.099 12.9.275 12.898-10.723 12.899-2.049 12.898-.482 12.9-.36 12.898-.416 12.899-.49 12.898.976 12.899.678 12.899.598 12.899-15.756 12.898 20.17 12.899 9.298 12.899-2.896 12.898 2.732 12.9-.997 12.898 1.115 12.899-.593 12.898-.25 12.9-4.454 12.898-1.272 12.899-1.96 12.898.492 12.9-3.564 12.898-4.627 12.899 6.283 12.898-5.166 12.899-.728 12.899-4.508 12.898 1.978 12.9 3.112 12.898-2.8 12.899 4.14 12.898-.858 12.9-.93 12.898 8.047 12.899-.236 12.898.643 12.9.515 12.898 5.581 12.899 3.02 12.898-2.975L1019 281.72" class="highcharts-graph" stroke="#a62aa4" stroke-width="3" stroke-linejoin="round" stroke-linecap="round"/>
<path fill="none" d="M-10 352.955h306.671l12.899-24.45 12.898-34.54 12.9 13.88 12.898-.367 12.899-13.613 12.898 4.883 12.899.533 12.899-3.7 12.898-.163 12.9-7.554 12.898-5.331 12.899-2.341 12.898-4.099 12.9.275 12.898-10.723 12.899-2.049 12.898-.482 12.9-.36 12.898-.416 12.899-.49 12.898.976 12.899.678 12.899.598 12.899-15.756 12.898 20.17 12.899 9.298 12.899-2.896 12.898 2.732 12.9-.997 12.898 1.115 12.899-.593 12.898-.25 12.9-4.454 12.898-1.272 12.899-1.96 12.898.492 12.9-3.564 12.898-4.627 12.899 6.283 12.898-5.166 12.899-.728 12.899-4.508 12.898 1.978 12.9 3.112 12.898-2.8 12.899 4.14 12.898-.858 12.9-.93 12.898 8.047 12.899-.236 12.898.643 12.9.515 12.898 5.581 12.899 3.02 12.898-2.975L1019 281.72h10" stroke-linejoin="round" stroke="rgba(192,192,192,0.0001)" stroke-width="22" class="highcharts-tracker"/>
</g>

<g class="highcharts-series highcharts-series-5 highcharts-areaspline-series highcharts-navigator-series" transform="translate(95 495)" clip-path="url(#c)">
<path fill="rgba(4,199,253,0.05)" d="M0 38.038s7.722-.02 12.87-.04c5.148-.018 7.722-.054 12.87-.054 5.148 0 7.722.049 12.87.086 5.148.037 7.722.1 12.87.1 5.149 0 7.723-.206 12.87-.31 5.149-.105 7.723-.213 12.87-.213 5.149 0 7.723.145 12.87.228 5.149.082 7.723.13 12.871.184 5.148.054 7.722.088 12.87.088 5.148 0 7.722-.07 12.87-.07 5.148 0 7.722.074 12.87.125 5.148.051 7.723.096 12.87.13 5.149.035 7.723.043 12.87.043 5.149 0 7.723-.175 12.87-.284 5.149-.11 7.723-.138 12.87-.262 5.149-.124 7.723-.356 12.871-.356 5.148 0 7.722.124 12.87.124 5.148 0 7.722-.071 12.87-.071 5.148 0 7.722.068 12.87.097 5.149.03 7.723.048 12.87.048 5.149 0 7.723-.086 12.87-.262 5.149-.175 7.723-.617 12.87-.617h12.871c5.148.001 7.722 0 12.87.002 5.148.001 7.722 1.728 12.87 2.029 5.148.3 7.722.3 12.87.3 5.148 0 7.722-.034 12.87-.034 5.149 0 7.723.114 12.87.155 5.149.041 7.723.05 12.87.05 5.149 0 7.723-.06 12.87-.084 5.149-.023 7.723 0 12.871-.03 5.148-.03 7.722-.119 12.87-.38 5.148-.262 7.722-.64 12.87-.929 5.148-.289 7.722-.403 12.87-.516 5.148-.113 7.722 0 12.87-.113 5.149-.112 7.723-20.499 12.87-20.499 5.149 0 7.723 7.323 12.87 7.323 5.149 0 7.723-15.725 12.87-16.412 5.149-.688 7.723-.688 12.871-.688 5.148 0 7.722.53 12.87.53 5.148 0 7.722-1.448 12.87-1.448 5.148 0 7.722 2.437 12.87 2.437 5.149 0 7.723-1.015 12.87-1.332 5.149-.316 7.723 0 12.87-.316 5.149-.317 7.723-2.025 12.87-2.025 5.149 0 7.723 1.806 12.871 2.43 5.148.626 7.722.695 12.87.695 5.148 0 7.722-.127 12.87-.272 5.148-.145 7.722-.2 12.87-.452 5.148-.252 7.722-.516 12.87-.806 5.149-.29 7.723-.479 12.87-.643 5.149-.165 7.723-.068 12.87-.18 5.149-.114 7.723-.385 12.87-.385 5.149 0 7.723.104 12.871.104 5.148 0 7.722-1.164 12.87-1.164 5.148 0 7.722.729 12.87 1.184 5.148.454 7.722 1.09 12.87 1.09 5.148 0 7.722-.69 12.87-1.25 5.149-.561 7.723-1.554 12.87-1.554 5.149 0 7.723 2.325 12.87 2.325 5.149 0 7.723-1.097 12.87-1.097 5.149 0 7.723 1.123 12.871 1.123 5.148 0 7.722-.182 12.87-.182 5.148 0 7.722.942 12.87 1.228 5.148.286 7.722.17 12.87.286 5.148.117 7.723 0 12.87.297 5.149.297 7.723 2.97 12.87 4.972 5.149 2.003 7.723 5.043 12.87 5.043 5.149 0 7.723-4.617 12.871-6.685 5.148-2.068 7.722-2.755 12.87-3.654 5.148-.899 7.722-.899 12.87-.899 5.148 0 7.722 4.197 12.87 4.197 5.148 0 7.722-.044 12.87-.044 5.149 0 7.723 1.307 12.87 1.307 5.149 0 7.723-4.733 12.87-4.733 5.149 0 7.723 1.817 12.87 2.744 5.149.927 12.871 1.89 12.871 1.89V40H0" class="highcharts-area"/>
<path fill="none" d="M0 38.038s7.722-.02 12.87-.04c5.148-.018 7.722-.054 12.87-.054 5.148 0 7.722.049 12.87.086 5.148.037 7.722.1 12.87.1 5.149 0 7.723-.206 12.87-.31 5.149-.105 7.723-.213 12.87-.213 5.149 0 7.723.145 12.87.228 5.149.082 7.723.13 12.871.184 5.148.054 7.722.088 12.87.088 5.148 0 7.722-.07 12.87-.07 5.148 0 7.722.074 12.87.125 5.148.051 7.723.096 12.87.13 5.149.035 7.723.043 12.87.043 5.149 0 7.723-.175 12.87-.284 5.149-.11 7.723-.138 12.87-.262 5.149-.124 7.723-.356 12.871-.356 5.148 0 7.722.124 12.87.124 5.148 0 7.722-.071 12.87-.071 5.148 0 7.722.068 12.87.097 5.149.03 7.723.048 12.87.048 5.149 0 7.723-.086 12.87-.262 5.149-.175 7.723-.617 12.87-.617h12.871c5.148.001 7.722 0 12.87.002 5.148.001 7.722 1.728 12.87 2.029 5.148.3 7.722.3 12.87.3 5.148 0 7.722-.034 12.87-.034 5.149 0 7.723.114 12.87.155 5.149.041 7.723.05 12.87.05 5.149 0 7.723-.06 12.87-.084 5.149-.023 7.723 0 12.871-.03 5.148-.03 7.722-.119 12.87-.38 5.148-.262 7.722-.64 12.87-.929 5.148-.289 7.722-.403 12.87-.516 5.148-.113 7.722 0 12.87-.113 5.149-.112 7.723-20.499 12.87-20.499 5.149 0 7.723 7.323 12.87 7.323 5.149 0 7.723-15.725 12.87-16.412 5.149-.688 7.723-.688 12.871-.688 5.148 0 7.722.53 12.87.53 5.148 0 7.722-1.448 12.87-1.448 5.148 0 7.722 2.437 12.87 2.437 5.149 0 7.723-1.015 12.87-1.332 5.149-.316 7.723 0 12.87-.316 5.149-.317 7.723-2.025 12.87-2.025 5.149 0 7.723 1.806 12.871 2.43 5.148.626 7.722.695 12.87.695 5.148 0 7.722-.127 12.87-.272 5.148-.145 7.722-.2 12.87-.452 5.148-.252 7.722-.516 12.87-.806 5.149-.29 7.723-.479 12.87-.643 5.149-.165 7.723-.068 12.87-.18 5.149-.114 7.723-.385 12.87-.385 5.149 0 7.723.104 12.871.104 5.148 0 7.722-1.164 12.87-1.164 5.148 0 7.722.729 12.87 1.184 5.148.454 7.722 1.09 12.87 1.09 5.148 0 7.722-.69 12.87-1.25 5.149-.561 7.723-1.554 12.87-1.554 5.149 0 7.723 2.325 12.87 2.325 5.149 0 7.723-1.097 12.87-1.097 5.149 0 7.723 1.123 12.871 1.123 5.148 0 7.722-.182 12.87-.182 5.148 0 7.722.942 12.87 1.228 5.148.286 7.722.17 12.87.286 5.148.117 7.723 0 12.87.297 5.149.297 7.723 2.97 12.87 4.972 5.149 2.003 7.723 5.043 12.87 5.043 5.149 0 7.723-4.617 12.871-6.685 5.148-2.068 7.722-2.755 12.87-3.654 5.148-.899 7.722-.899 12.87-.899 5.148 0 7.722 4.197 12.87 4.197 5.148 0 7.722-.044 12.87-.044 5.149 0 7.723 1.307 12.87 1.307 5.149 0 7.723-4.733 12.87-4.733 5.149 0 7.723 1.817 12.87 2.744 5.149.927 12.871 1.89 12.871 1.89" class="highcharts-graph" stroke="#04c7fd" stroke-linejoin="round" stroke-linecap="round"/>
</g>
</g>

<text x="555" text-anchor="middle" class="highcharts-title" y="22" color="#333" font-size="16" fill="#333">
<tspan>Timeseries of Video Bytes</tspan>
</text>

<g class="highcharts-axis-labels highcharts-xaxis-labels" text-anchor="middle" color="#666" cursor="default" font-size="11" fill="#666">
<text x="893.62" y="466">
<tspan>Jan &apos;18</tspan>
</text>
<text x="983.911" y="466">
<tspan>May &apos;18</tspan>
</text>
<text x="1080.563" y="466">
<tspan>Sep &apos;18</tspan>
</text>
<text x="81" y="466">
<tspan>May &apos;15</tspan>
</text>
<text x="184.19" y="466">
<tspan>Sep &apos;15</tspan>
</text>
<text x="287.38" y="466">
<tspan>Jan &apos;16</tspan>
</text>
<text x="390.57" y="466">
<tspan>May &apos;16</tspan>
</text>
<text x="493.759" y="466">
<tspan>Sep &apos;16</tspan>
</text>
<text x="584.051" y="466">
<tspan>Jan &apos;17</tspan>
</text>
<text x="687.241" y="466">
<tspan>May &apos;17</tspan>
</text>
<text x="790.43" y="466">
<tspan>Sep &apos;17</tspan>
</text>
</g>

<g class="highcharts-axis-labels highcharts-xaxis-labels highcharts-navigator-xaxis" color="#999" cursor="default" font-size="11" fill="#999">
<text x="-12.315" y="531">
<tspan>Jan &apos;15</tspan>
</text>
<text x="149.481" y="531">
<tspan>Jul &apos;15</tspan>
</text>
<text x="303.922" y="531">
<tspan>Jan &apos;16</tspan>
</text>
<text x="458.364" y="531">
<tspan>Jul &apos;16</tspan>
</text>
<text x="591.623" y="531">
<tspan>Jan &apos;17</tspan>
</text>
<text x="728.636" y="531">
<tspan>Jul &apos;17</tspan>
</text>
<text x="883.078" y="531">
<tspan>Jan &apos;18</tspan>
</text>
<text x="1024.649" y="531">
<tspan>Jul &apos;18</tspan>
</text>
</g>

<g class="highcharts-axis-labels highcharts-yaxis-labels" text-anchor="end" color="#666" cursor="default" font-size="11" fill="#666">
<text x="66" y="445">
<tspan>0</tspan>
</text>
<text x="66" y="304">
<tspan>5k</tspan>
</text>
<text x="66" y="163">
<tspan>10k</tspan>
</text>
<text x="66" y="374">
<tspan>2.5k</tspan>
</text>
<text x="66" y="233">
<tspan>7.5k</tspan>
</text>
<text y="-9999">
<tspan>12.5k</tspan>
</text>
</g>

<g class="highcharts-legend" transform="translate(470 559)">
<rect fill="none" class="highcharts-legend-box" rx="0" ry="0" width="170" height="26"/>
<g class="highcharts-legend-item highcharts-line-series highcharts-color-undefined highcharts-series-0">
<path fill="none" d="M8 14h16" class="highcharts-graph" stroke="#04c7fd" stroke-width="2"/>
<text x="21" y="15" color="#333" font-weight="700" cursor="pointer" fill="#333" transform="translate(8 3)">
<tspan>Desktop</tspan>
</text>
</g>
<g class="highcharts-legend-item highcharts-line-series highcharts-color-undefined highcharts-series-2">
<path fill="none" d="M100.39 14h16" class="highcharts-graph" stroke="#a62aa4" stroke-width="2"/>
<text x="21" y="15" color="#333" font-weight="700" cursor="pointer" fill="#333" transform="translate(100.39 3)">
<tspan>Mobile</tspan>
</text>
</g>
</g>
<g class="highcharts-navigator">
<path fill="rgba(102,133,194,0.3)" class="highcharts-navigator-mask-inside" cursor="ew-resize" d="M95 495h991v40H95z"/>
<path fill="none" class="highcharts-navigator-outline" stroke="#ccc" d="M81 495.5h13.5v54h991v-54h14.5m-1006 0h992"/>
<path fill="#f2f2f2" d="M1081.5 507.5h8v15h-8v-15m3 3.5v8m2-8v8" class="highcharts-navigator-handle highcharts-navigator-handle-right" stroke="#999" cursor="ew-resize"/>
<path fill="#f2f2f2" d="M90.5 507.5h8v15h-8v-15m3 3.5v8m2-8v8" class="highcharts-navigator-handle highcharts-navigator-handle-left" stroke="#999" cursor="ew-resize"/>
</g>
</svg>